<svg xmlns="http://www.w3.org/2000/svg" width="2500" height="2500" viewBox="0 0 32 32">
  <path fill="#ffffff" d="M11.086 0h5.482v24.414c-2.818.533-4.91.746-7.158.746C3.77 25.16 0 21.865 0 15.828c0-5.717 3.982-9.659 10.137-9.659.715 0 1.248.044 1.95.177zm0 12.527c-.569-.133-1.018-.177-1.593-.177-2.57 0-4.045 1.504-4.045 4.192 0 2.596 1.43 4.01 4.066 4.01.518 0 .918-.045 1.572-.156zM24.461 6.485v13.537c0 4.626-.347 6.779-1.39 8.68-0.99 1.835-2.251 2.968-4.803 4.051l-5.049-2.39c2.552-1.083 3.813-2.217 4.803-4.051 1.043-1.901 1.39-4.054 1.39-8.68V6.485zM24.461 0h5.482v5.482h-5.482z"/>
</svg>